<?xml version="1.0" standalone="no"?><!DOCTYPE svg PUBLIC "-//W3C//DTD SVG 1.1//EN" "http://www.w3.org/Graphics/SVG/1.1/DTD/svg11.dtd"><svg viewBox="0 0 1024 1024" version="1.1" xmlns="http://www.w3.org/2000/svg" p-id="16215" data-spm-anchor-id="a313x.7781069.0.i26" xmlns:xlink="http://www.w3.org/1999/xlink" ><defs><style type="text/css"></style></defs><path d="M891.668601 577.611324c-89.079828 49.415456-179.385577 94.695732-279.245935 115.476011-22.460548 4.673439-46.904263 4.493338-69.728084 1.378393-21.74935-2.967588-32.301683-22.24156-24.658609-42.821271 7.1744-19.316951 17.053398-38.555108 29.715789-54.710043 27.179013-34.681894 57.772798-66.673515 85.292572-101.106746 16.857946-21.092387 31.943526-43.912116 45.309952-67.387783 9.606799-16.874319 5.309936-36.984333-11.719926-45.466518-28.615735-14.255679-59.383482-24.26259-89.538269-35.254945-3.470031-1.26583-8.801457 2.573615-15.563464 4.801353 8.610098 7.92039 15.146978 13.933337 23.814382 21.903869-89.63753 15.365966-174.893262 37.784558-257.522168 68.403926-0.35918 1.805112-1.055029 3.091408-0.672312 3.695159 12.166087 19.183921 6.457062 33.785477-11.18576 45.791929-6.747681 4.590552-12.913101 10.039657-17.99177 17.181311 54.416354 16.393365 103.003955 7.04751 149.214417-24.184819-2.877537-4.264117-5.463432-8.094352-8.276501-12.264325 17.597797 3.024893 28.052916 12.914124 29.414937 28.315906 0.300852 3.397377-1.863441 7.011694-2.89391 10.525728-2.575662-2.837628-5.431709-5.477758-7.625678-8.584516-1.359974-1.929955-1.717108-4.567016-2.90926-7.993045-55.102992 37.757952-114.307396 47.208185-179.738617 27.604708 0 13.123902-0.6191 24.283056 0.187265 35.33681 0.696872 9.537214-3.246951 13.586436-11.356652 18.62315-18.96391 11.778254-38.429241 24.020066-53.94154 39.765679-18.942421 19.228947-11.874445 42.436508 13.510712 52.253084 28.945239 11.1919 59.289338 11.378142 89.465614 7.664563 35.753295-4.399193 71.311139-10.380418 110.11184-16.144702-45.859467 21.856797-90.528829 37.381375-138.083915 43.702338-33.100886 4.400217-66.181305 6.867408-99.03762-2.615571-47.045479-13.576203-68.01814-49.27731-55.636135-96.794533 11.613502-44.568055 39.240723-80.126922 69.305459-112.974028 100.070136-109.330034 226.524177-164.893514 372.993063-175.798888 34.153868-2.540869 68.75185 1.944282 100.729146 16.801664 45.12064 20.963451 63.72537 65.163115 41.97295 109.874433-14.423501 29.64825-34.344203 56.907081-53.947679 83.665515-19.367093 26.437116-41.60763 50.755987-62.203714 76.314083-6.076392 7.541767-11.565407 15.756869-16.059767 24.329105-8.528234 16.261359-2.679016 27.380604 15.745612 25.542746 38.647205-3.854794 77.957513-6.890944 115.28977-16.736173 54.803163-14.456247 108.119463-34.56012 162.048723-52.318576C881.465215 581.691245 886.534673 579.553559 891.668601 577.611324z" p-id="16216" data-spm-anchor-id="a313x.7781069.0.i23" class="" fill="#e67817"></path></svg>