<?xml version="1.0" standalone="no"?><!DOCTYPE svg PUBLIC "-//W3C//DTD SVG 1.1//EN" "http://www.w3.org/Graphics/SVG/1.1/DTD/svg11.dtd"><svg t="1606478955936" class="icon" viewBox="0 0 1024 1024" version="1.1" xmlns="http://www.w3.org/2000/svg" p-id="15751" xmlns:xlink="http://www.w3.org/1999/xlink" width="200" height="200"><defs><style type="text/css"></style></defs><path d="M0 0m136.5504 0l750.8992 0q136.5504 0 136.5504 136.5504l0 750.8992q0 136.5504-136.5504 136.5504l-750.8992 0q-136.5504 0-136.5504-136.5504l0-750.8992q0-136.5504 136.5504-136.5504Z" fill="#1C80FD" p-id="15752"></path><path d="M561.8688 771.584c36.3008-9.984 60.7232-23.9104 74.5984-43.2128 13.824-19.3024 32.0512-44.7488 31.1808-84.2752-0.8704-39.5264-6.4-43.3152-5.8368-50.0736 0.512-6.7584 0.4096-37.888 34.2016-48.0768 33.7408-10.24 62.0544 15.616 63.8464 53.248 1.7408 37.8368-19.5072 212.8896-129.28 206.336-109.7216-6.6048-120.7296 12.1344-146.176-46.4384 0 0 41.1136 22.4256 77.4656 12.4928z" fill="#FF9100" p-id="15753"></path><path d="M720.128 238.1824c0 5.376-0.4608 17.0496 2.2016 18.432 2.7136 1.3312 55.9616-1.8432 64.4096 20.6848 8.5504 22.528 2.2528 32.8192-6.7072 44.1344-8.9088 11.264-50.0736 40.4992-124.3648 12.1856 0 0-3.584 6.656 17.4592 15.3088 20.992 8.4992 32.256 10.5984 32.256 10.5984s-107.8784 27.648-114.9952 45.1584c-3.584 8.8576 14.7968 86.016-82.3296 128.768 0 0-36.7104 14.848-45.568 1.792 0 0 17.8176-20.224 21.8624-27.904 3.9936-7.68 13.4144-34.7136-10.752-42.2912-24.1152-7.68-112.4352 76.1344-116.224 158.5664-3.7888 82.432 20.1728 210.7904 216.7296 226.1504 0 0-133.376-28.16-151.04-145.6128-17.8176-118.4768 24.576-133.9392 24.576-133.9392s3.2256-1.1776 1.1264 4.608c-6.4 17.408-11.776 44.4416-11.2128 58.9824 0.8704 17.5104 6.5536 158.8736 136.3456 159.9488 140.3904 1.024 146.0224-133.7344 145.2032-148.0192-0.8192-14.336 13.4144-43.7248 37.12-46.1312 23.7568-2.4064 62.464-1.5872 56.9856 69.12-5.5296 70.8608-58.5216 212.48-294.9632 200.6016-236.3904-11.9296-316.2624-241.8176-299.7248-357.632 16.64-115.7632 49.6128-120.576 41.1648-148.4288-9.728-32.0512-46.2336-21.2992-70.4-10.3424-23.0912 10.4448-18.1248-7.168-18.1248-7.168s9.0112-62.2592 94.8224-77.1584c53.0432-9.216 88.32 5.3248 88.32 5.3248s110.3872-122.4704 225.8432-122.4704c118.2208 0 133.7344 64.6144 133.7344 64.6144s6.2464 16.64 6.2464 22.1184z" fill="#FFFFFF" p-id="15754"></path><path d="M652.8512 270.1312a34.304 34.304 0 0 1-34.1504 34.4064 34.304 34.304 0 0 1-34.1504-34.4064 34.304 34.304 0 0 1 34.1504-34.4064c18.944 0 34.1504 15.4112 34.1504 34.4064" fill="#9FDFFF" p-id="15755"></path><path d="M660.0704 267.7248a27.392 27.392 0 1 1-54.6816 0c0-15.2064 12.2368-27.5456 27.2896-27.5456 15.104 0 27.3408 12.288 27.3408 27.5456" fill="#0D70FB" p-id="15756"></path><path d="M637.184 257.1776a7.8336 7.8336 0 1 1-15.6672 0c0-4.352 3.5328-7.936 7.8336-7.936 4.352 0 7.8336 3.584 7.8336 7.936" fill="#FFFFFF" p-id="15757"></path></svg>