<?xml version="1.0" standalone="no"?><!DOCTYPE svg PUBLIC "-//W3C//DTD SVG 1.1//EN" "http://www.w3.org/Graphics/SVG/1.1/DTD/svg11.dtd"><svg t="1606478968765" class="icon" viewBox="0 0 1028 1024" version="1.1" xmlns="http://www.w3.org/2000/svg" p-id="15890" xmlns:xlink="http://www.w3.org/1999/xlink" width="200.78125" height="200"><defs><style type="text/css"></style></defs><path d="M512 512m-512 0a512 512 0 1 0 1024 0 512 512 0 1 0-1024 0Z" fill="#3B7E38" p-id="15891"></path><path d="M684.176991 357.946903H339.823009c-58.902655 0-81.557522 27.185841-86.088496 86.088495v77.026549c0 49.840708 27.185841 81.557522 77.026549 81.557522h357.946903c49.840708 0 77.026549-27.185841 77.026548-77.026549V444.035398c0-58.902655-27.185841-86.088496-81.557522-86.088495z m22.654867 144.99115c0 27.185841-9.061947 36.247788-36.247787 36.247788H362.477876c-36.247788 0-45.309735-9.061947-45.309734-45.309735V453.097345c0-22.654867 9.061947-31.716814 36.247787-31.716814h321.699115c27.185841 0 36.247788 9.061947 36.247788 36.247788-4.530973 13.59292-4.530973 31.716814-4.530974 45.309734z m0 0M770.265487 738.548673h-86.088496c-9.061947 0-13.59292 0-22.654867-4.530974 4.530973-13.59292 9.061947-18.123894 13.59292-27.185841l13.592921-27.18584c9.061947-13.59292 9.061947-27.185841 0-36.247788-13.59292-18.123894-36.247788-13.59292-49.840708 9.061947l-40.778761 67.964602c-9.061947 13.59292-18.123894 18.123894-31.716815 18.123894h-104.212389c-13.59292 0-22.654867-4.530973-27.185841-18.123894-13.59292-22.654867-22.654867-45.309735-36.247787-67.964602-22.654867-18.123894-36.247788-27.185841-54.371682-18.123894-18.123894 9.061947-22.654867 27.185841-9.061947 49.840708 9.061947 13.59292 18.123894 31.716814 31.716815 54.371682H240.141593c-18.123894 0-31.716814 13.59292-31.716814 27.18584 0 18.123894 9.061947 27.185841 31.716814 31.716814h525.59292c31.716814 0 45.309735-9.061947 45.309735-27.18584 4.530973-22.654867-13.59292-31.716814-40.778761-31.716814z m0 0" fill="#FFFFFF" p-id="15892"></path><path d="M285.451327 280.920354H752.141593c22.654867 0 31.716814-13.59292 31.716814-31.716814 0-18.123894-13.59292-27.185841-31.716814-27.185841H289.982301c-31.716814 0-49.840708 9.061947-45.309735 31.716814-4.530973 18.123894 9.061947 27.185841 40.778761 27.185841z m0 0" fill="#FFFFFF" p-id="15893"></path></svg>