<?xml version="1.0" standalone="no"?><!DOCTYPE svg PUBLIC "-//W3C//DTD SVG 1.1//EN" "http://www.w3.org/Graphics/SVG/1.1/DTD/svg11.dtd"><svg t="1606478975673" class="icon" viewBox="0 0 1024 1024" version="1.1" xmlns="http://www.w3.org/2000/svg" p-id="16026" xmlns:xlink="http://www.w3.org/1999/xlink" width="200" height="200"><defs><style type="text/css"></style></defs><path d="M518.6 817.5C393.7 824.2 283.9 749 236 646.6c-52.6-112.6-42.7-223.8 32.4-323.1 71.6-94.6 171.2-132.2 289.2-118.1 58.5 7 110.2 31 155.1 69.2 24.4 20.7 23.9 30-3.2 45.5-23.5 13.5-47.2 26.8-70.5 40.5-64.6 37.9-129.8 75.1-193.7 114.3-34.2 21-41.1 54.4-22 89 20.7 37.5 60.8 46.2 103.4 21.7C653 512.5 779 438.7 905.7 366.3c21-12 23.3-24.2 14-44.5-32.8-71.4-81.1-130-145.8-173.9-143-96.9-295.6-112.4-451.8-38.8C166.3 182.6 81.6 311.6 67.6 481.6c-11.7 141 42 260.3 143.7 358.5C353.1 977 590.2 998.6 753.1 888.5c42.4-28.7 42.4-28.7 16.1-72.4-28.4-47.3-56.7-56.1-106-32.4-46.7 22.4-95.1 36.9-144.6 33.8z" fill="#1296db" p-id="16027"></path><path d="M947.5 617.1c-2.3-33.9-20.7-61.4-36.5-89.7-5.2-9.3-13.5-5.7-20.9-1.5-29 16.6-58 33.4-87.2 49.6-12.4 6.9-14.6 15.2-7.4 27.4 16.7 28.1 33.2 56.2 49.2 84.7 6.9 12.4 15.3 15.2 27.2 7.6 17.5-11 35.5-21.3 52.4-33.2 14.9-10.5 23.8-25.4 23.2-44.9z" fill="#1296db" p-id="16028"></path></svg>