<svg viewBox="0 0 1024 1024" version="1.1" xmlns="http://www.w3.org/2000/svg"><path d="M899.303226 521.083871c-7.432258-38.812903-18.167742-76.8-32.206452-113.96129-25.6-67.716129-60.283871-131.303226-104.051613-192.412904-15.690323-21.470968-33.032258-42.941935-58.632258-56.154838 9.909677 66.890323 2.477419 128-39.638709 181.677419-2.477419 2.477419-4.129032 4.954839-6.606452 8.258065-3.303226-14.03871-6.606452-28.077419-10.735484-41.290323-19.819355-62.76129-49.548387-118.090323-88.36129-168.464516C511.174194 76.8 453.367742 28.077419 379.870968 0c-0.825806 3.303226-0.825806 4.954839-0.825807 6.606452 9.083871 79.277419-4.129032 154.425806-42.116129 222.967742-36.335484 66.064516-76.8 130.477419-118.916129 193.238709C164.335484 502.916129 127.174194 588.8 118.916129 685.419355 109.832258 788.645161 132.129032 880.309677 210.580645 951.329032c14.864516 13.212903 30.554839 24.774194 47.896774 35.509678 23.948387 14.03871 49.548387 25.6 76.8 33.858064l-3.303225-6.606451c-47.070968-52.851613-57.806452-114.787097-43.767742-183.329033 13.212903-62.76129 42.116129-117.264516 76.8-168.464516 32.206452-47.896774 61.935484-97.445161 70.193548-156.903226 2.477419-20.645161 2.477419-42.941935 3.303226-66.064516C502.916129 470.709677 543.380645 520.258065 569.806452 581.367742c9.083871 20.645161 17.341935 43.767742 23.948387 66.890323 4.129032-4.954839 7.432258-9.909677 10.735484-14.864517 18.167742-29.729032 18.993548-62.76129 14.864516-99.92258 40.464516 33.858065 70.193548 71.845161 91.664516 115.612903 14.03871 28.077419 23.948387 57.806452 31.380645 90.012903 5.780645 24.774194 7.432258 47.896774 7.432258 71.019355-0.825806 78.451613-33.858065 146.993548-91.664516 208.103226l-3.303226 3.303226c0.825806 0 1.651613-0.825806 2.477419-0.825807 17.341935-8.258065 35.509677-16.516129 52.025807-25.6 17.341935-9.909677 33.858065-20.645161 48.722581-31.380645 97.445161-71.845161 151.122581-172.593548 153.6-304.722581 0-48.722581-4.129032-94.141935-12.387097-137.909677z" fill="#4988FD" p-id="17379"></path><path d="M333.625806 589.625806c39.63871-18.993548 70.193548-33.858065 93.316129-45.419354-13.212903 42.941935-36.335484 80.929032-61.109677 117.264516-34.683871 52.025806-64.412903 106.529032-76.8 168.464516-14.03871 68.541935-3.303226 130.477419 43.767742 183.329032 0.825806 0.825806 1.651613 3.303226 3.303226 6.606452-28.077419-8.258065-53.677419-19.819355-76.8-33.858065-2.477419-1.651613-4.129032-3.303226-6.606452-4.954838-44.593548-37.16129-71.845161-81.754839-84.232258-130.47742-9.083871-90.83871 13.212903-189.109677 165.16129-260.954839zM910.864516 657.341935c-2.477419 132.129032-56.154839 232.877419-153.6 304.722581-14.864516 11.56129-31.380645 22.296774-48.722581 31.380645-16.516129 9.909677-34.683871 17.341935-52.025806 25.6 0-0.825806 0.825806-1.651613 0.825806-2.477419 57.806452-61.109677 90.83871-128.825806 91.664517-208.103226 69.367742-79.277419 123.045161-169.290323 150.296774-288.206451 8.258065 44.593548 12.387097 90.012903 11.56129 137.08387z" fill="#3973F4" p-id="17380"></path></svg>