<?xml version="1.0" standalone="no"?><!DOCTYPE svg PUBLIC "-//W3C//DTD SVG 1.1//EN" "http://www.w3.org/Graphics/SVG/1.1/DTD/svg11.dtd"><svg t="1606477192872" class="icon" viewBox="0 0 1024 1024" version="1.1" xmlns="http://www.w3.org/2000/svg" p-id="35268" xmlns:xlink="http://www.w3.org/1999/xlink" width="200" height="200"><defs><style type="text/css"></style></defs><path d="M832.474238 911.269179a512.136474 512.136474 0 0 1-771.48456-156.632805l165.944377-135.801762a304.498012 304.498012 0 0 0 438.763845 155.896839z" fill="#28B446" p-id="35269"></path><path d="M838.777949 117.897624l-165.88038 135.801762a304.466014 304.466014 0 0 0-448.843381 159.416676L57.277849 276.578335h-0.031999a512.072477 512.072477 0 0 1 781.532099-158.648712z" fill="#F14336" p-id="35270"></path><path d="M61.021677 754.636374l165.912378-135.801762a305.553964 305.553964 0 0 1-2.879867-205.71855L57.277849 276.578335h-0.031999a512.87244 512.87244 0 0 0 3.775827 478.058039z" fill="#FBBB00" p-id="35271"></path><path d="M1014.993854 416.379913H523.240444v202.550695h273.747424a305.137983 305.137983 0 0 1-131.289968 155.832841l166.776338 136.473731v0.031999a512.616452 512.616452 0 0 0 182.519616-494.889266z" fill="#518EF8" p-id="35272"></path></svg>