<?xml version="1.0" standalone="no"?><!DOCTYPE svg PUBLIC "-//W3C//DTD SVG 1.1//EN" "http://www.w3.org/Graphics/SVG/1.1/DTD/svg11.dtd"><svg t="1606477143718" class="icon" viewBox="0 0 1024 1024" version="1.1" xmlns="http://www.w3.org/2000/svg" p-id="34593" xmlns:xlink="http://www.w3.org/1999/xlink" width="200" height="200"><defs><style type="text/css"></style></defs><path d="M518.656 513.024m-498.688 0a498.688 498.688 0 1 0 997.376 0 498.688 498.688 0 1 0-997.376 0Z" fill="#D81E06" opacity=".1" p-id="34594"></path><path d="M472.064 280.576s-51.2-1.536-83.456 39.936c-32.256 41.984-8.192 105.984 8.192 139.776 15.872 33.792 96.256 163.84 99.328 165.376 3.072 3.072 6.656 1.536 6.656-1.536s9.728-189.44 1.536-234.496c-6.656-46.592-29.184-104.448-32.256-109.056zM295.424 367.104c-6.656 0-48.128 41.984-51.2 83.456-3.072 39.936 14.336 67.584 62.464 101.376 49.664 35.328 165.376 99.328 168.448 93.184 1.536-4.608-45.056-90.112-83.456-151.04-40.448-62.464-90.112-128.512-96.256-126.976z m15.872 375.808c35.328 15.872 90.112-19.456 105.984-30.72 14.336-11.264 39.936-30.72 39.936-30.72l-200.704 6.656s19.456 38.912 54.784 54.784z m4.608-162.304c-35.328-17.92-109.056-59.392-112.64-57.856-3.072 0-14.336 51.2 9.728 90.112 22.528 38.4 67.584 49.664 88.576 53.248 22.528 3.072 159.232 1.536 159.232-1.536-2.048-0.512-109.568-66.048-144.896-83.968z m332.8-261.632c-32.256-41.984-83.456-39.936-83.456-39.936-3.072 4.608-25.6 62.464-32.256 109.056-6.656 46.592 1.536 232.96 1.536 236.032 0 3.072 3.072 3.072 6.656 1.536 3.072-3.072 84.992-133.12 99.328-165.376 15.872-33.792 39.936-97.792 8.192-141.312z m184.32 203.776c-3.072 0-77.312 39.936-112.64 57.856-35.328 17.92-142.848 81.92-142.848 84.992-1.536 3.072 134.656 4.608 159.232 1.536 20.992-3.072 66.048-14.336 88.576-53.248 22.528-39.424 11.264-91.136 7.68-91.136z m-213.504 189.44c14.336 9.728 70.656 45.056 105.984 30.72 35.328-14.336 54.784-54.784 54.784-54.784l-200.704-4.608c0-1.536 25.6 19.456 39.936 28.672z m173.568-263.168c-3.072-39.936-45.056-81.92-51.2-83.456-6.656 0-56.32 64-94.72 126.976s-86.528 145.92-83.456 151.04c1.536 4.608 118.784-57.856 168.448-93.184 46.592-32.256 64-59.392 60.928-101.376z m0 0" fill="#FF2A30" p-id="34595"></path></svg>