<?xml version="1.0" standalone="no"?><!DOCTYPE svg PUBLIC "-//W3C//DTD SVG 1.1//EN" "http://www.w3.org/Graphics/SVG/1.1/DTD/svg11.dtd"><svg viewBox="0 0 1024 1024" version="1.1" xmlns="http://www.w3.org/2000/svg" xmlns:xlink="http://www.w3.org/1999/xlink"><defs><style type="text/css"></style></defs><path d="M772.672 517.792L512.213333 452.672V277.333333a85.333333 85.333333 0 0 0-170.666666 0v284.672l-12.501334-12.501333a105.92 105.92 0 0 0-75.413333-31.253333h-1.098667a105.888 105.888 0 0 0-75.882666 32.832c-22.474667 23.413333-22.602667 57.461333-0.832 86.037333l186.709333 266.88A106.762667 106.762667 0 0 0 456.533333 960h247.68a149.514667 149.514667 0 0 0 149.333334-149.333333V621.376a106.624 106.624 0 0 0-80.874667-103.584zM810.88 810.666667a106.773333 106.773333 0 0 1-106.666667 106.666666H456.533333a65.525333 65.525333 0 0 1-57.749333-35.712L210.282667 612c-5.44-7.168-13.066667-20.746667-2.837334-31.370667a63.434667 63.434667 0 0 1 45.525334-19.712h0.661333a63.466667 63.466667 0 0 1 45.248 18.752l48.917333 48.917334a21.333333 21.333333 0 0 0 36.416-15.082667V277.333333a42.666667 42.666667 0 0 1 85.333334 0v192a21.344 21.344 0 0 0 16.170666 20.704l276.618667 69.173334a63.968 63.968 0 0 1 48.544 62.165333zM426.88 149.333333a21.322667 21.322667 0 0 0 21.333333-21.333333V85.333333a21.333333 21.333333 0 0 0-42.666666 0v42.666667a21.322667 21.322667 0 0 0 21.333333 21.333333zM234.88 277.333333h42.666667a21.333333 21.333333 0 1 0 0-42.666666h-42.666667a21.333333 21.333333 0 0 0 0 42.666666zM554.88 256a21.322667 21.322667 0 0 0 21.333333 21.333333h42.666667a21.333333 21.333333 0 0 0 0-42.666666h-42.666667a21.322667 21.322667 0 0 0-21.333333 21.333333zM528.074667 186.837333a21.269333 21.269333 0 0 0 15.082666-6.250666l30.165334-30.165334a21.333333 21.333333 0 0 0-30.165334-30.176l-30.165333 30.176a21.333333 21.333333 0 0 0 15.072 36.416zM310.613333 180.586667a21.333333 21.333333 0 1 0 30.165334-30.165334l-30.165334-30.176a21.333333 21.333333 0 0 0-30.165333 30.176z" fill="#646464" p-id="9495"></path></svg>