<?xml version="1.0" standalone="no"?><!DOCTYPE svg PUBLIC "-//W3C//DTD SVG 1.1//EN" "http://www.w3.org/Graphics/SVG/1.1/DTD/svg11.dtd"><svg t="1606478935218" class="icon" viewBox="0 0 1024 1024" version="1.1" xmlns="http://www.w3.org/2000/svg" p-id="15616" xmlns:xlink="http://www.w3.org/1999/xlink" width="200" height="200"><defs><style type="text/css"></style></defs><path d="M107.047 509.445c0 223.648 181.303 404.952 404.952 404.952 223.65 0 404.954-181.304 404.954-404.952 0-223.65-181.304-404.954-404.954-404.954-223.649 0.001-404.952 181.304-404.952 404.954z" fill="#3787A5" p-id="15617"></path><path d="M743.852 634.9v52.451H582.733V634.9h33.563V402.461h-1.44l-78.818 284.831h-61.009l-77.812-284.831h-1.997V634.9h33.875v52.451H294.061V634.9h17.259c3.511 0 7.109-1.637 10.792-4.903 3.682-3.266 5.524-6.391 5.524-9.412V399.396c0-3.011-1.843-6.369-5.524-10.071-3.683-3.701-7.281-5.542-10.792-5.522h-17.259v-52.365H462.73l55.47 206.061h1.512l55.974-206.076h168.166v52.45H726.04c-3.18 0-6.612 1.841-10.297 5.524-3.683 3.682-5.525 7.039-5.525 10.069v221.118c0 3.021 1.8 6.146 5.409 9.412 3.61 3.267 7.063 4.903 10.413 4.903h17.812z" fill="#FFFFFF" p-id="15618"></path></svg>