<?xml version="1.0" standalone="no"?><!DOCTYPE svg PUBLIC "-//W3C//DTD SVG 1.1//EN" "http://www.w3.org/Graphics/SVG/1.1/DTD/svg11.dtd"><svg t="1606477203543" class="icon" viewBox="0 0 1024 1024" version="1.1" xmlns="http://www.w3.org/2000/svg" p-id="35541" xmlns:xlink="http://www.w3.org/1999/xlink" width="200" height="200"><defs><style type="text/css"></style></defs><path d="M907.8 86.4H564.5L576.6 394l89.9 87.8 241.3 28.6 26.5-105.1-18.5-318.9z" fill="#FEF582" p-id="35542"></path><path d="M915.8 532.9H776.5c-129.3 0-234.6-98.5-234.6-219.5V93.9h45v219.5c0 96.2 85 174.5 189.5 174.5h139.3v45z" fill="#526351" p-id="35543"></path><path d="M620.7 686.7m-52.5 0a52.5 52.5 0 1 0 105 0 52.5 52.5 0 1 0-105 0Z" fill="#526351" p-id="35544"></path><path d="M112.4 86.4h343.3L443.5 394l-89.8 87.8-241.3 28.6-26.6-105.1 18.5-318.9z" fill="#FEF582" p-id="35545"></path><path d="M892.8 960.6H130.9c-37.2 0-67.5-30.3-67.5-67.5V131.4c0-37.2 30.3-67.5 67.5-67.5h761.9c37.2 0 67.5 30.3 67.5 67.5v761.7c0.1 37.2-30.2 67.5-67.5 67.5zM130.9 108.9c-12.4 0-22.5 10.1-22.5 22.5v761.7c0 12.4 10.1 22.5 22.5 22.5h761.9c12.4 0 22.5-10.1 22.5-22.5V131.4c0-12.4-10.1-22.5-22.5-22.5H130.9z" fill="#526351" p-id="35546"></path><path d="M243.6 532.9H104.3v-45h139.3c104.5 0 189.5-78.3 189.5-174.5V93.9h45v219.5c0.1 121-105.2 219.5-234.5 219.5z" fill="#526351" p-id="35547"></path><path d="M399.4 686.7m-52.5 0a52.5 52.5 0 1 0 105 0 52.5 52.5 0 1 0-105 0Z" fill="#526351" p-id="35548"></path></svg>