<?xml version="1.0" standalone="no"?><!DOCTYPE svg PUBLIC "-//W3C//DTD SVG 1.1//EN" "http://www.w3.org/Graphics/SVG/1.1/DTD/svg11.dtd"><svg t="1606477197426" class="icon" viewBox="0 0 1024 1024" version="1.1" xmlns="http://www.w3.org/2000/svg" p-id="35405" xmlns:xlink="http://www.w3.org/1999/xlink" width="200" height="200"><defs><style type="text/css"></style></defs><path d="M0 0m203.0592 0l617.8816 0q203.0592 0 203.0592 203.0592l0 617.8816q0 203.0592-203.0592 203.0592l-617.8816 0q-203.0592 0-203.0592-203.0592l0-617.8816q0-203.0592 203.0592-203.0592Z" fill="#FFC300" p-id="35406"></path><path d="M431.2064 320.2048H389.12c-7.68 22.7328-10.24 31.8464-10.24 31.8464H215.04s-2.4576-9.1136-10.24-31.8464h-41.984v31.8464H112.64v38.0928h160.3584v31.4368H120.5248v40.96h152.4736V491.52H120.5248v40.96h152.4736v29.5936H112.64v40.3456h145.408s-40.96 52.6336-147.1488 57.4464v43.008S226.2016 714.0352 296.96 621.6704c0 0 48.2304 79.5648 184.32 81.3056v-44.6464s-91.3408 2.7648-144.2816-56.0128H481.28v-40.3456H322.1504V532.48h151.4496v-40.96H322.1504v-28.9792h151.4496v-40.96H322.1504V390.144H481.28v-38.0928h-50.176zM626.8928 630.784H675.84a516.5056 516.5056 0 0 0 52.0192-164.6592h42.5984v103.5264a412.0576 412.0576 0 0 1-6.8608 61.44h45.1584a376.832 376.832 0 0 0 5.2224-61.44V466.1248h29.3888v-39.936H814.08v-33.1776h-43.52v33.3824H613.0688v39.936h68.8128a437.9648 437.9648 0 0 1-54.9888 164.4544z" p-id="35407"></path><path d="M542.72 328.3968v375.3984h317.44a53.76 53.76 0 0 0 53.6576-53.76V328.3968z m329.728 321.6384a13.0048 13.0048 0 0 1-13.0048 13.1072H583.68V368.64h288.768z" p-id="35408"></path></svg>