<?xml version="1.0" standalone="no"?><!DOCTYPE svg PUBLIC "-//W3C//DTD SVG 1.1//EN" "http://www.w3.org/Graphics/SVG/1.1/DTD/svg11.dtd"><svg t="1606477154500" class="icon" viewBox="0 0 1024 1024" version="1.1" xmlns="http://www.w3.org/2000/svg" p-id="34728" xmlns:xlink="http://www.w3.org/1999/xlink" width="200" height="200"><defs><style type="text/css"></style></defs><path d="M229.985 0.213l202.658 574.27v-0.299l16.042 45.225c89.085 252.064 136.955 387.184 137.21 387.482 0.171 0 13.653 0.854 29.951 1.707 49.321 2.133 110.502 7.68 156.836 13.226 10.667 1.28 19.882 1.707 20.48 1.28L592.21 453.101l-18.602-52.478L470.231 108.37C450.605 52.904 433.966 5.632 433.113 3.839L431.79 0.044H230.198z" p-id="34729"></path><path d="M592.978 0.555l-0.427 226.38-0.341 226.38-18.645-52.564v-0.085L549.46 904.538c23.679 66.856 36.35 102.524 36.478 102.695 0.17 0.17 13.653 1.024 29.951 1.792 49.363 2.133 110.502 7.68 157.007 13.226 10.666 1.28 19.924 1.706 20.479 1.28s0.853-231.244 0.725-512.406L793.76 0.47H592.978zM229.985 0.128V511.68c0 281.332 0.299 511.765 0.64 512.107s17.749-1.28 38.697-3.67c20.906-2.56 49.918-5.546 64.424-6.826 22.1-2.133 88.231-6.4 95.91-6.4 2.22 0 2.39-11.52 2.689-216.737l0.341-216.738 16.213 45.225 5.546 16.042 24.32-503.446-8.107-23.295L433.113 3.84l-1.28-3.712H229.985z" p-id="34730"></path></svg>