<?xml version="1.0" standalone="no"?><!DOCTYPE svg PUBLIC "-//W3C//DTD SVG 1.1//EN" "http://www.w3.org/Graphics/SVG/1.1/DTD/svg11.dtd"><svg t="1606475555158" class="icon" viewBox="0 0 1024 1024" version="1.1" xmlns="http://www.w3.org/2000/svg" p-id="11249" xmlns:xlink="http://www.w3.org/1999/xlink" width="200" height="200"><defs><style type="text/css"></style></defs><path d="M600.2 793.9H396.5c-65.4 0-118.5-53.2-118.5-118.5V442.7c0-11 9-20 20-20h400.8c11 0 20 9 20 20v232.7c-0.1 65.3-53.2 118.5-118.6 118.5zM318 462.7v212.7c0 43.3 35.2 78.5 78.5 78.5h203.7c43.3 0 78.5-35.2 78.5-78.5V462.7H318zM375 374.6c-11 0-20-9-20-20v-59.3c0-11 9-20 20-20s20 9 20 20v59.3c0 11.1-8.9 20-20 20zM375 242c-11 0-20-9-20-20v-24.5c0-11 9-20 20-20s20 9 20 20V222c0 11-8.9 20-20 20zM607.6 374.6c-11 0-20-9-20-20v-59.3c0-11 9-20 20-20s20 9 20 20v59.3c0 11.1-8.9 20-20 20zM607.6 242c-11 0-20-9-20-20v-24.5c0-11 9-20 20-20s20 9 20 20V222c0 11-8.9 20-20 20zM487.7 249.7c-11 0-20-9-20-20v-59.3c0-11 9-20 20-20s20 9 20 20v59.3c0 11.1-9 20-20 20zM487.7 347.9c-11 0-20-9-20-20v-24.5c0-11 9-20 20-20s20 9 20 20v24.5c0 11-9 20-20 20z" fill="#ADCD0A" p-id="11250"></path><path d="M772.1 665.9c-50.8 0-92.2-41.4-92.2-92.2 0-50.8 41.4-92.2 92.2-92.2s92.2 41.4 92.2 92.2c0 50.9-41.3 92.2-92.2 92.2z m0-144.3c-28.8 0-52.2 23.4-52.2 52.2 0 28.8 23.4 52.2 52.2 52.2s52.2-23.4 52.2-52.2c0-28.8-23.4-52.2-52.2-52.2zM746 893.7H238.8c-11 0-20-9-20-20s9-20 20-20H746c11 0 20 9 20 20s-9 20-20 20zM428.8 553.6c-5.5 0-10-4.5-10-10v-101c0-5.5 4.5-10 10-10s10 4.5 10 10v101c0 5.5-4.5 10-10 10z" fill="#ADCD0A" p-id="11251"></path><path d="M386.1 543.6h85.3v85.3h-85.3z" fill="#FEEE05" p-id="11252"></path><path d="M471.4 638.9h-85.3c-5.5 0-10-4.5-10-10v-85.3c0-5.5 4.5-10 10-10h85.3c5.5 0 10 4.5 10 10v85.3c0 5.6-4.4 10-10 10z m-75.3-20h65.3v-65.3h-65.3v65.3z" fill="#ADCD0A" p-id="11253"></path></svg>