<?xml version="1.0" standalone="no"?><!DOCTYPE svg PUBLIC "-//W3C//DTD SVG 1.1//EN" "http://www.w3.org/Graphics/SVG/1.1/DTD/svg11.dtd"><svg t="1606477136233" class="icon" viewBox="0 0 1024 1024" version="1.1" xmlns="http://www.w3.org/2000/svg" p-id="34454" xmlns:xlink="http://www.w3.org/1999/xlink" width="200" height="200"><defs><style type="text/css"></style></defs><path d="M857.163122 499.599514c-2.730586-38.697522-10.111701-85.117482-29.993779-112.551338 19.242097-244.686095-147.195645-389.492478-315.126678-386.975218-167.931032 2.730586-334.240779 142.289124-314.998681 386.975218-19.882078 27.433855-27.39119 73.597823-29.865783 112.551338-49.278542 75.475101-103.634267 190.714358-43.049393 301.815071 30.847087-13.396937 55.678353-42.580074 63.78478-78.717671 23.465972 57.598296 57.768958 112.210014 104.018256 154.235437-66.259373 12.970283-113.276649 44.201359-111.698029 78.205686 1.919943 41.940093 77.011055 72.701849 167.504378 68.435309 75.347104-3.626559 137.595929-30.07911 155.344737-63.187464 1.919943 0.255992 16.170188 0.255992 18.090132 0 17.663477 33.193685 79.997633 59.688901 155.344738 63.187464 90.493323 4.138544 165.584435-26.495216 167.461712-68.435309 1.57862-34.132324-45.39599-65.235403-111.570032-78.07769 46.291964-42.23875 80.68028-96.679807 103.97559-154.235437 8.106427 36.137598 32.937692 65.278069 63.742115 78.717671 60.371547-111.100713 6.015822-226.339971-43.134724-301.815071h-0.127997v-0.127996h0.298658zM596.605497 160.878867c33.321681 0.981304 59.176916 41.641435 57.683627 90.621319-1.663951 48.979884-29.908449 87.848068-63.144799 86.738768-33.23635-1.151966-58.835593-41.513439-57.384969-90.663985 1.450624-48.979884 29.823118-87.677406 62.846141-86.696102z m-174.160181-5.546502c34.302985-1.237297 63.31546 38.910849 65.022076 89.512018 1.57862 50.60117-24.959262 92.498597-59.219581 93.437236-34.26032 1.279962-63.31546-38.782853-64.979411-89.426688-1.535955-50.558504 24.916596-92.541262 59.134251-93.437235l0.042665-0.085331zM316.37912 394.557288c4.437202-19.839413 122.663038-43.902701 195.663545-44.158694 73.171169-0.469319 191.226343 24.447277 195.834207 44.158694 2.943913 14.548903-61.822171 64.766084-102.610298 81.021603-39.380168 15.31688-48.211907 37.246898-93.138578 37.246898-44.84134 0-53.75841-21.802022-93.010582-37.246898-40.916123-16.298185-105.724872-66.558031-102.823624-81.021603h0.08533z m195.663545 541.125325c-155.814057-0.511985-309.708171-123.516346-242.083505-366.367829 9.343724 5.162514 19.412759 9.770378 29.951114 14.420907-2.218601 30.505764-8.789073 129.276176-5.973156 144.934379 3.199905 18.900774 103.676933 33.023023 112.679333 26.36722 7.935765-5.75983 6.997126-102.738294 5.930491-137.339937 32.12705 6.101153 65.790054 9.429054 99.495723 9.429055 90.450658 0.085331 180.474661-24.745935 242.126171-57.640962 67.837993 242.680821-86.141452 366.709152-242.04084 366.197167h-0.085331z" fill="" p-id="34455"></path><path d="M442.754049 203.714933c-14.463572 0.511985-25.599243 18.858109-24.959262 41.172116 0.682646 22.356672 12.927618 40.020149 27.348524 39.678826 14.378241-0.682646 25.599243-18.94344 24.916596-41.257446-0.597316-22.18601-12.927618-39.934819-27.305858-39.508165v-0.085331z m7.509111 53.161094c-5.375841 0.255992-10.02637-6.86913-10.239697-15.999526-0.383989-9.130397 3.71189-16.554177 9.173062-16.639508 5.418506-0.255992 10.02637 6.997126 10.325027 15.999527 0.298658 8.91707-3.797221 16.511512-9.258392 16.639507z m165.499104 11.690321h-0.383989a6.570472 6.570472 0 0 1-6.31448-6.741134c0.341323-6.31448-0.810643-24.063288-8.831739-32.596369a14.506238 14.506238 0 0 0-11.434328-4.650529c-21.930018 0-22.399337 32.169715-22.484668 33.492343 0 3.839886-2.773251 6.698469-6.655803 6.698468-3.925217 0-6.399811-3.199905-6.399811-6.783799 0-16.170188 7.551777-46.718618 35.753609-46.718618a28.159167 28.159167 0 0 1 20.820717 8.789073c13.567599 14.250245 12.586294 41.257446 12.500964 42.238751-0.042665 3.370567-2.943913 6.101153-6.570472 6.271814zM512.042665 490.682444c8.44775 0.255992 12.842287-0.511985 19.071436-1.57862 15.999527-3.114575 32.255046-18.303459 47.614592-26.879205 33.065688-20.479394 39.124176-16.682173 91.559958-63.144798a284.151594 284.151594 0 0 1-102.908956 53.929071c-9.386389 2.730586-31.743061 4.479867-55.251699 4.607864-23.508638 0.383989-45.86531-1.919943-55.251699-4.607864A279.202407 279.202407 0 0 1 354.138003 398.99449c52.307786 46.505291 58.49427 42.622739 91.517293 63.102133 15.359546 8.661077 31.615065 24.020623 47.614591 27.049866 6.015822 1.066635 10.538355 1.322628 18.772778 1.535955z" fill="" p-id="34456"></path></svg>