<?xml version="1.0" standalone="no"?><!DOCTYPE svg PUBLIC "-//W3C//DTD SVG 1.1//EN" "http://www.w3.org/Graphics/SVG/1.1/DTD/svg11.dtd"><svg t="1606477180702" class="icon" viewBox="0 0 1024 1024" version="1.1" xmlns="http://www.w3.org/2000/svg" p-id="35133" xmlns:xlink="http://www.w3.org/1999/xlink" width="200" height="200"><defs><style type="text/css"></style></defs><path d="M512 512m-448 0a448 448 0 1 0 896 0 448 448 0 1 0-896 0Z" fill="#FF6702" p-id="35134"></path><path d="M786 699.6c0 2.4-1.8 4.3-4 4.3h-77.1c-2.2 0-4-1.9-4-4.3V324.5c0-2.4 1.8-4.3 4-4.3H782c2.2 0 4 1.9 4 4.3v375.1z m-308.3 0c0 2.4-1.8 4.3-4 4.3h-77.1c-2.2 0-4-1.9-4-4.3V473.9c0-2.4 1.8-4.3 4-4.3h77.1c2.2 0 4 1.9 4 4.3v225.7z m155.7 0V430.7c0-61.1-46-110.6-102.7-110.6H242c-2.2 0-4 1.9-4 4.3v375.2c0 2.4 1.8 4.3 4 4.3h77.1c2.2 0 4-1.9 4-4.3V405.1c0-2.4 1.8-4.3 4-4.3H493c31.1 0 56.4 27.2 56.4 60.7v238.1c0 2.4 1.8 4.3 4 4.3h76c2.2 0 4-2 4-4.3z" fill="#FFFFFF" p-id="35135"></path></svg>